<svg width="12" height="8" viewBox="0 0 12 8" fill="#333333" xmlns="http://www.w3.org/2000/svg">
<path d="M5.76006 7.75003C5.44244 7.75044 5.14004 7.60833 4.93014 7.36003L0.22086 1.78403C-0.0887059 1.39973 -0.0471378 0.828289 0.314484 0.49697C0.676106 0.165652 1.22551 0.195646 1.5519 0.564525L5.66982 5.44053C5.69261 5.4676 5.72549 5.48313 5.76006 5.48313C5.79463 5.48313 5.82752 5.4676 5.8503 5.44053L9.96822 0.564525C10.175 0.307857 10.499 0.187975 10.8148 0.25127C11.1307 0.314564 11.3889 0.551105 11.4895 0.86936C11.59 1.18761 11.5173 1.53765 11.2993 1.78403L6.59142 7.35803C6.38116 7.60693 6.07835 7.74971 5.76006 7.75003Z" fill="#333333"/>
</svg>
