<svg width="16" height="16" viewBox="0 0 16 16" fill="none" xmlns="http://www.w3.org/2000/svg">
<path fill-rule="evenodd" clip-rule="evenodd" d="M12.6522 10.8455L15.625 13.8183C16.1247 14.3182 16.1247 15.1284 15.625 15.6282C15.1216 16.1193 14.3185 16.1193 13.8151 15.6282L10.8423 12.6561C8.03573 14.5324 4.26353 13.9738 2.12123 11.3645C-0.0210666 8.75528 0.165296 4.9465 2.55209 2.55886C4.93889 0.171221 8.7476 -0.0164887 11.3576 2.12489C13.9676 4.26626 14.5276 8.03826 12.6522 10.8455ZM11.8401 7.20328C11.8401 4.64068 9.76268 2.56328 7.20008 2.56328C4.63865 2.5661 2.5629 4.64184 2.56008 7.20328C2.56008 9.76588 4.63748 11.8433 7.20008 11.8433C9.76268 11.8433 11.8401 9.76588 11.8401 7.20328Z" fill="#161829"/>
</svg>
